<svg id="visual" viewBox="0 0 900 600" width="900" height="600" xmlns="http://www.w3.org/2000/svg" xmlns:xlink="http://www.w3.org/1999/xlink" version="1.1"><rect width="900" height="600" fill="#ffffff"></rect><g><g transform="translate(453 229)"><path d="M107.2 -36.7C120.3 5.5 99.5 56.9 63.2 82.1C27 107.2 -24.7 106.2 -57.2 81.8C-89.8 57.5 -103.2 9.8 -90.4 -31.9C-77.7 -73.7 -38.8 -109.5 4.1 -110.8C47 -112.2 94.1 -79 107.2 -36.7Z" stroke="#9698d6" fill="none" stroke-width="20"></path></g><g transform="translate(836 98)"><path d="M58.3 -18.5C64.9 1.3 52.2 27.9 31.2 43.3C10.1 58.6 -19.3 62.8 -39 49.5C-58.7 36.2 -68.7 5.3 -60.5 -16.6C-52.4 -38.6 -26.2 -51.7 -0.2 -51.6C25.8 -51.6 51.7 -38.4 58.3 -18.5Z" stroke="#9698d6" fill="none" stroke-width="20"></path></g><g transform="translate(143 497)"><path d="M45.8 -14.8C53.4 8.4 49.3 35.4 33.1 47.6C17 59.8 -11.4 57.2 -28.7 43.7C-46.1 30.1 -52.4 5.5 -45.8 -16.4C-39.2 -38.2 -19.6 -57.4 -0.2 -57.3C19.1 -57.2 38.3 -37.9 45.8 -14.8Z" stroke="#9698d6" fill="none" stroke-width="20"></path></g><g transform="translate(779 494)"><path d="M47.5 -16.2C54.3 5.3 47.4 30.5 29.3 44.6C11.3 58.7 -17.8 61.7 -36.8 48.4C-55.8 35.2 -64.5 5.7 -56.7 -17.3C-48.9 -40.3 -24.4 -56.7 -2 -56C20.4 -55.4 40.8 -37.6 47.5 -16.2Z" stroke="#9698d6" fill="none" stroke-width="20"></path></g><g transform="translate(151 155)"><path d="M64.5 -19.3C73 5 61.8 37.3 39.2 53.6C16.6 70 -17.4 70.4 -39.3 54.4C-61.2 38.5 -71 6.1 -62.4 -18.3C-53.8 -42.8 -26.9 -59.3 0.6 -59.5C28.1 -59.7 56.1 -43.5 64.5 -19.3Z" stroke="#9698d6" fill="none" stroke-width="20"></path></g></g></svg>