<svg id="visual" viewBox="0 0 900 600" width="900" height="600" xmlns="http://www.w3.org/2000/svg" xmlns:xlink="http://www.w3.org/1999/xlink" version="1.1"><rect width="900" height="600" fill="none"></rect><g><g transform="translate(468 270)"><path d="M49.5 -17.1C56 4 47.6 29 30.9 40.7C14.1 52.5 -11 51.1 -27 39C-43.1 26.9 -50.1 4.2 -44.1 -16.2C-38.1 -36.6 -19 -54.7 1.2 -55.1C21.5 -55.5 43 -38.2 49.5 -17.1Z" fill="#4d4cac"></path></g><g transform="translate(654 544)"><path d="M41.2 -12.1C47.3 5.2 41.8 27.6 27.9 37.4C14.1 47.2 -8.1 44.4 -23.8 33C-39.6 21.5 -48.9 1.3 -43.8 -14.6C-38.8 -30.6 -19.4 -42.2 -0.9 -41.9C17.6 -41.6 35.2 -29.4 41.2 -12.1Z" fill="#4d4cac"></path></g><g transform="translate(524 439)"><path d="M38.6 -13.9C43.6 2.7 36.6 21.8 22.5 32.4C8.4 42.9 -12.9 45 -25.8 35.6C-38.7 26.2 -43.3 5.3 -37.6 -12.3C-31.9 -29.9 -16 -44.3 0.4 -44.4C16.8 -44.6 33.7 -30.5 38.6 -13.9Z" fill="#4d4cac"></path></g><g transform="translate(199 230)"><path d="M30 -10.9C34.1 3 29.5 18.6 18.7 26.5C8 34.5 -8.7 34.8 -20.2 26.7C-31.6 18.6 -37.8 2.2 -33.5 -11.8C-29.3 -25.8 -14.6 -37.4 -0.9 -37.1C12.9 -36.9 25.8 -24.7 30 -10.9Z" fill="#4d4cac"></path></g><g transform="translate(739 45)"><path d="M23.8 -7.3C27 2.2 23.2 14.5 15 20.4C6.7 26.3 -5.9 25.9 -14.1 19.9C-22.2 13.8 -25.8 2.1 -22.7 -7.2C-19.6 -16.5 -9.8 -23.4 0.2 -23.5C10.3 -23.6 20.6 -16.8 23.8 -7.3Z" fill="#4d4cac"></path></g><g transform="translate(719 219)"><path d="M40.5 -11.8C46.9 6.4 42.6 29.5 28.1 40.5C13.6 51.4 -11 50.2 -26.5 38.4C-42.1 26.7 -48.6 4.4 -42.7 -13.3C-36.8 -31 -18.4 -44.1 -0.7 -43.8C17.1 -43.6 34.1 -30.1 40.5 -11.8Z" fill="#4d4cac"></path></g><g transform="translate(6 316)"><path d="M28.8 -9.9C33 3.6 29.2 19.3 18.6 27.3C8.1 35.4 -9.2 35.9 -21.5 27.5C-33.7 19.1 -40.9 1.7 -36.5 -12.1C-32.1 -25.8 -16 -36.1 -1.9 -35.5C12.3 -34.8 24.6 -23.4 28.8 -9.9Z" fill="#4d4cac"></path></g><g transform="translate(54 114)"><path d="M36.2 -11C40.7 2.2 34 19.8 22.2 27.8C10.4 35.7 -6.5 33.9 -17.3 25.6C-28.2 17.3 -33 2.5 -29.1 -9.8C-25.3 -22.1 -12.6 -31.8 1.6 -32.3C15.8 -32.8 31.6 -24.1 36.2 -11Z" fill="#4d4cac"></path></g><g transform="translate(389 50)"><path d="M24.7 -8.1C28 2.1 23.9 14.7 15.8 20.3C7.6 25.9 -4.6 24.5 -13.2 18.2C-21.8 12 -26.8 0.8 -24 -8.7C-21.2 -18.3 -10.6 -26.2 0 -26.2C10.7 -26.2 21.4 -18.3 24.7 -8.1Z" fill="#4d4cac"></path></g><g transform="translate(338 557)"><path d="M41 -14.2C47.3 6.2 42.6 29.2 27.9 40.4C13.1 51.7 -11.8 51 -27.4 39.3C-43.1 27.5 -49.5 4.7 -43.4 -15.4C-37.3 -35.5 -18.7 -52.8 -0.7 -52.6C17.3 -52.3 34.6 -34.6 41 -14.2Z" fill="#4d4cac"></path></g><g transform="translate(810 481)"><path d="M22.4 -6.2C26.1 4.1 24.1 17.3 15.9 23.7C7.8 30 -6.7 29.5 -16.2 22.5C-25.8 15.5 -30.5 2 -27 -8C-23.5 -18 -11.7 -24.6 -1.2 -24.2C9.3 -23.9 18.7 -16.5 22.4 -6.2Z" fill="#4d4cac"></path></g></g></svg>