<svg id="visual" viewBox="0 0 900 600" width="900" height="600" xmlns="http://www.w3.org/2000/svg" xmlns:xlink="http://www.w3.org/1999/xlink" version="1.1"><rect width="900" height="600" fill="none"></rect><g><g transform="translate(852 281)"><path d="M42.4 -14.3C48.3 4.3 41.7 26.4 26.7 37.4C11.7 48.5 -11.8 48.5 -27.6 37.2C-43.5 25.9 -51.8 3.2 -45.9 -15.4C-40 -34 -20 -48.5 -0.9 -48.2C18.3 -48 36.5 -32.9 42.4 -14.3Z" fill="#ff808b"></path></g><g transform="translate(320 206)"><path d="M22.7 -6.6C26 2.7 22.8 14.9 14.7 21C6.6 27.1 -6.5 27 -13.8 21.2C-21.2 15.4 -22.7 3.7 -19.5 -5.6C-16.2 -14.9 -8.1 -21.8 0.8 -22.1C9.7 -22.3 19.4 -15.9 22.7 -6.6Z" fill="#ff808b"></path></g><g transform="translate(650 87)"><path d="M24.9 -7C28.9 4 26.3 18.3 16.9 25.7C7.5 33.1 -8.7 33.7 -18.8 26.3C-28.9 18.8 -32.9 3.4 -28.8 -7.9C-24.6 -19.2 -12.3 -26.5 -0.9 -26.2C10.5 -25.9 21 -18.1 24.9 -7Z" fill="#ff808b"></path></g><g transform="translate(478 310)"><path d="M25.5 -8C28.9 2.2 24.7 15.2 15.1 22.6C5.5 30 -9.4 31.8 -19.1 25.1C-28.7 18.4 -32.9 3.1 -28.9 -8C-24.8 -19.1 -12.4 -26 -0.7 -25.8C11.1 -25.6 22.1 -18.2 25.5 -8Z" fill="#ff808b"></path></g><g transform="translate(473 137)"><path d="M32.7 -11C37.2 3.1 32 20 20.4 28.5C8.8 37.1 -9.2 37.2 -20.3 28.9C-31.4 20.6 -35.6 3.8 -31.1 -10.4C-26.6 -24.6 -13.3 -36.2 0.4 -36.3C14.1 -36.5 28.3 -25.1 32.7 -11Z" fill="#ff808b"></path></g><g transform="translate(136 295)"><path d="M26.2 -9.4C29.4 1.3 24.3 13.9 15.3 20.1C6.4 26.4 -6.4 26.4 -14.4 20.4C-22.4 14.4 -25.6 2.5 -22.4 -8.2C-19.2 -18.9 -9.6 -28.4 0.9 -28.7C11.5 -29.1 23 -20.1 26.2 -9.4Z" fill="#ff808b"></path></g><g transform="translate(738 498)"><path d="M18.9 -5.9C21.2 0.7 17.3 9.6 10.5 14.6C3.7 19.6 -6.1 20.7 -12.1 16.4C-18.2 12.1 -20.5 2.3 -17.8 -4.8C-15.2 -12 -7.6 -16.5 0.4 -16.7C8.3 -16.8 16.7 -12.5 18.9 -5.9Z" fill="#ff808b"></path></g><g transform="translate(588 457)"><path d="M32 -9.8C36.4 3.2 31.5 19.9 20.3 28C9.2 36.1 -8.2 35.6 -20.8 26.9C-33.4 18.1 -41.2 1.1 -36.9 -11.6C-32.6 -24.4 -16.3 -32.9 -1.3 -32.5C13.8 -32.1 27.6 -22.8 32 -9.8Z" fill="#ff808b"></path></g><g transform="translate(806 62)"><path d="M37.2 -12.2C41.8 1.9 34.6 19.8 21.4 29.3C8.2 38.9 -10.9 40.1 -24 31.1C-37 22 -44 2.7 -39 -12C-34 -26.7 -17 -36.8 -0.3 -36.7C16.3 -36.6 32.6 -26.3 37.2 -12.2Z" fill="#ff808b"></path></g><g transform="translate(179 86)"><path d="M32.3 -11.3C35.8 0.1 28.2 14.2 16.8 22.3C5.4 30.4 -9.7 32.3 -20.3 25.3C-30.8 18.3 -36.7 2.2 -32.5 -10.2C-28.4 -22.6 -14.2 -31.3 0.1 -31.4C14.4 -31.4 28.9 -22.8 32.3 -11.3Z" fill="#ff808b"></path></g></g></svg>