<svg id="visual" viewBox="0 0 900 450" width="900" height="450" xmlns="http://www.w3.org/2000/svg" xmlns:xlink="http://www.w3.org/1999/xlink" version="1.1"><rect x="0" y="0" width="900" height="450" fill="#FFFFFF"></rect><path d="M0 281L21.5 288.5C43 296 86 311 128.8 310.2C171.7 309.3 214.3 292.7 257.2 282.8C300 273 343 270 385.8 272.3C428.7 274.7 471.3 282.3 514.2 290.3C557 298.3 600 306.7 642.8 303.5C685.7 300.3 728.3 285.7 771.2 280.5C814 275.3 857 279.7 878.5 281.8L900 284L900 451L878.5 451C857 451 814 451 771.2 451C728.3 451 685.7 451 642.8 451C600 451 557 451 514.2 451C471.3 451 428.7 451 385.8 451C343 451 300 451 257.2 451C214.3 451 171.7 451 128.8 451C86 451 43 451 21.5 451L0 451Z" fill="#9698d6"></path><path d="M0 300L21.5 308.2C43 316.3 86 332.7 128.8 333.5C171.7 334.3 214.3 319.7 257.2 313C300 306.3 343 307.7 385.8 307.8C428.7 308 471.3 307 514.2 314.2C557 321.3 600 336.7 642.8 339.3C685.7 342 728.3 332 771.2 328.7C814 325.3 857 328.7 878.5 330.3L900 332L900 451L878.5 451C857 451 814 451 771.2 451C728.3 451 685.7 451 642.8 451C600 451 557 451 514.2 451C471.3 451 428.7 451 385.8 451C343 451 300 451 257.2 451C214.3 451 171.7 451 128.8 451C86 451 43 451 21.5 451L0 451Z" fill="#8384cc"></path><path d="M0 372L21.5 373.3C43 374.7 86 377.3 128.8 370.2C171.7 363 214.3 346 257.2 341.8C300 337.7 343 346.3 385.8 347C428.7 347.7 471.3 340.3 514.2 343.3C557 346.3 600 359.7 642.8 366C685.7 372.3 728.3 371.7 771.2 365.7C814 359.7 857 348.3 878.5 342.7L900 337L900 451L878.5 451C857 451 814 451 771.2 451C728.3 451 685.7 451 642.8 451C600 451 557 451 514.2 451C471.3 451 428.7 451 385.8 451C343 451 300 451 257.2 451C214.3 451 171.7 451 128.8 451C86 451 43 451 21.5 451L0 451Z" fill="#7171c2"></path><path d="M0 397L21.5 394.8C43 392.7 86 388.3 128.8 382.5C171.7 376.7 214.3 369.3 257.2 371.7C300 374 343 386 385.8 386C428.7 386 471.3 374 514.2 374C557 374 600 386 642.8 391.2C685.7 396.3 728.3 394.7 771.2 393.7C814 392.7 857 392.3 878.5 392.2L900 392L900 451L878.5 451C857 451 814 451 771.2 451C728.3 451 685.7 451 642.8 451C600 451 557 451 514.2 451C471.3 451 428.7 451 385.8 451C343 451 300 451 257.2 451C214.3 451 171.7 451 128.8 451C86 451 43 451 21.5 451L0 451Z" fill="#5f5eb7"></path><path d="M0 423L21.5 419.8C43 416.7 86 410.3 128.8 406.2C171.7 402 214.3 400 257.2 399C300 398 343 398 385.8 402.7C428.7 407.3 471.3 416.7 514.2 420.2C557 423.7 600 421.3 642.8 417.8C685.7 414.3 728.3 409.7 771.2 411.2C814 412.7 857 420.3 878.5 424.2L900 428L900 451L878.5 451C857 451 814 451 771.2 451C728.3 451 685.7 451 642.8 451C600 451 557 451 514.2 451C471.3 451 428.7 451 385.8 451C343 451 300 451 257.2 451C214.3 451 171.7 451 128.8 451C86 451 43 451 21.5 451L0 451Z" fill="#4d4cac"></path></svg>