<svg id="visual" viewBox="0 0 1920 1080" width="1920" height="1080" xmlns="http://www.w3.org/2000/svg" xmlns:xlink="http://www.w3.org/1999/xlink" version="1.1"><path d="M0 87L29.2 94.3C58.3 101.7 116.7 116.3 174.8 125.3C233 134.3 291 137.7 349.2 135.8C407.3 134 465.7 127 523.8 118C582 109 640 98 698.2 105.2C756.3 112.3 814.7 137.7 872.8 134.2C931 130.7 989 98.3 1047.2 85.7C1105.3 73 1163.7 80 1221.8 94.3C1280 108.7 1338 130.3 1396.2 135.8C1454.3 141.3 1512.7 130.7 1570.8 116.3C1629 102 1687 84 1745.2 91.2C1803.3 98.3 1861.7 130.7 1890.8 146.8L1920 163L1920 0L1890.8 0C1861.7 0 1803.3 0 1745.2 0C1687 0 1629 0 1570.8 0C1512.7 0 1454.3 0 1396.2 0C1338 0 1280 0 1221.8 0C1163.7 0 1105.3 0 1047.2 0C989 0 931 0 872.8 0C814.7 0 756.3 0 698.2 0C640 0 582 0 523.8 0C465.7 0 407.3 0 349.2 0C291 0 233 0 174.8 0C116.7 0 58.3 0 29.2 0L0 0Z" fill="#ff808b"></path><path d="M0 239L29.2 260.5C58.3 282 116.7 325 174.8 379C233 433 291 498 349.2 535.8C407.3 573.7 465.7 584.3 523.8 582.5C582 580.7 640 566.3 698.2 535.7C756.3 505 814.7 458 872.8 404C931 350 989 289 1047.2 292.7C1105.3 296.3 1163.7 364.7 1221.8 375.5C1280 386.3 1338 339.7 1396.2 343.3C1454.3 347 1512.7 401 1570.8 406.3C1629 411.7 1687 368.3 1745.2 346.7C1803.3 325 1861.7 325 1890.8 325L1920 325L1920 161L1890.8 144.8C1861.7 128.7 1803.3 96.3 1745.2 89.2C1687 82 1629 100 1570.8 114.3C1512.7 128.7 1454.3 139.3 1396.2 133.8C1338 128.3 1280 106.7 1221.8 92.3C1163.7 78 1105.3 71 1047.2 83.7C989 96.3 931 128.7 872.8 132.2C814.7 135.7 756.3 110.3 698.2 103.2C640 96 582 107 523.8 116C465.7 125 407.3 132 349.2 133.8C291 135.7 233 132.3 174.8 123.3C116.7 114.3 58.3 99.7 29.2 92.3L0 85Z" fill="#ec6c94"></path><path d="M0 293L29.2 321.7C58.3 350.3 116.7 407.7 174.8 459.8C233 512 291 559 349.2 589.7C407.3 620.3 465.7 634.7 523.8 632.8C582 631 640 613 698.2 586C756.3 559 814.7 523 872.8 485.2C931 447.3 989 407.7 1047.2 416.7C1105.3 425.7 1163.7 483.3 1221.8 496C1280 508.7 1338 476.3 1396.2 490.7C1454.3 505 1512.7 566 1570.8 557C1629 548 1687 469 1745.2 434.8C1803.3 400.7 1861.7 411.3 1890.8 416.7L1920 422L1920 323L1890.8 323C1861.7 323 1803.3 323 1745.2 344.7C1687 366.3 1629 409.7 1570.8 404.3C1512.7 399 1454.3 345 1396.2 341.3C1338 337.7 1280 384.3 1221.8 373.5C1163.7 362.7 1105.3 294.3 1047.2 290.7C989 287 931 348 872.8 402C814.7 456 756.3 503 698.2 533.7C640 564.3 582 578.7 523.8 580.5C465.7 582.3 407.3 571.7 349.2 533.8C291 496 233 431 174.8 377C116.7 323 58.3 280 29.2 258.5L0 237Z" fill="#d25c9d"></path><path d="M0 714L29.2 706.8C58.3 699.7 116.7 685.3 174.8 692.5C233 699.7 291 728.3 349.2 755.3C407.3 782.3 465.7 807.7 523.8 816.7C582 825.7 640 818.3 698.2 805.7C756.3 793 814.7 775 872.8 751.7C931 728.3 989 699.7 1047.2 706.8C1105.3 714 1163.7 757 1221.8 769.5C1280 782 1338 764 1396.2 785.7C1454.3 807.3 1512.7 868.7 1570.8 857.8C1629 847 1687 764 1745.2 738.8C1803.3 713.7 1861.7 746.3 1890.8 762.7L1920 779L1920 420L1890.8 414.7C1861.7 409.3 1803.3 398.7 1745.2 432.8C1687 467 1629 546 1570.8 555C1512.7 564 1454.3 503 1396.2 488.7C1338 474.3 1280 506.7 1221.8 494C1163.7 481.3 1105.3 423.7 1047.2 414.7C989 405.7 931 445.3 872.8 483.2C814.7 521 756.3 557 698.2 584C640 611 582 629 523.8 630.8C465.7 632.7 407.3 618.3 349.2 587.7C291 557 233 510 174.8 457.8C116.7 405.7 58.3 348.3 29.2 319.7L0 291Z" fill="#b053a6"></path><path d="M0 865L29.2 866.8C58.3 868.7 116.7 872.3 174.8 892.2C233 912 291 948 349.2 971.3C407.3 994.7 465.7 1005.3 523.8 998.2C582 991 640 966 698.2 937.2C756.3 908.3 814.7 875.7 872.8 854C931 832.3 989 821.7 1047.2 830.7C1105.3 839.7 1163.7 868.3 1221.8 877.3C1280 886.3 1338 875.7 1396.2 890.2C1454.3 904.7 1512.7 944.3 1570.8 940.7C1629 937 1687 890 1745.2 868.3C1803.3 846.7 1861.7 850.3 1890.8 852.2L1920 854L1920 777L1890.8 760.7C1861.7 744.3 1803.3 711.7 1745.2 736.8C1687 762 1629 845 1570.8 855.8C1512.7 866.7 1454.3 805.3 1396.2 783.7C1338 762 1280 780 1221.8 767.5C1163.7 755 1105.3 712 1047.2 704.8C989 697.7 931 726.3 872.8 749.7C814.7 773 756.3 791 698.2 803.7C640 816.3 582 823.7 523.8 814.7C465.7 805.7 407.3 780.3 349.2 753.3C291 726.3 233 697.7 174.8 690.5C116.7 683.3 58.3 697.7 29.2 704.8L0 712Z" fill="#864eab"></path><path d="M0 1081L29.2 1081C58.3 1081 116.7 1081 174.8 1081C233 1081 291 1081 349.2 1081C407.3 1081 465.7 1081 523.8 1081C582 1081 640 1081 698.2 1081C756.3 1081 814.7 1081 872.8 1081C931 1081 989 1081 1047.2 1081C1105.3 1081 1163.7 1081 1221.8 1081C1280 1081 1338 1081 1396.2 1081C1454.3 1081 1512.7 1081 1570.8 1081C1629 1081 1687 1081 1745.2 1081C1803.3 1081 1861.7 1081 1890.8 1081L1920 1081L1920 852L1890.8 850.2C1861.7 848.3 1803.3 844.7 1745.2 866.3C1687 888 1629 935 1570.8 938.7C1512.7 942.3 1454.3 902.7 1396.2 888.2C1338 873.7 1280 884.3 1221.8 875.3C1163.7 866.3 1105.3 837.7 1047.2 828.7C989 819.7 931 830.3 872.8 852C814.7 873.7 756.3 906.3 698.2 935.2C640 964 582 989 523.8 996.2C465.7 1003.3 407.3 992.7 349.2 969.3C291 946 233 910 174.8 890.2C116.7 870.3 58.3 866.7 29.2 864.8L0 863Z" fill="#4d4cac"></path></svg>