{
    "asset" : {
        "generator" : "Khronos glTF Blender I/O v3.4.50",
        "version" : "2.0"
    },
    "scene" : 0,
    "scenes" : [
        {
            "name" : "Scene",
            "nodes" : [
                0,
                23
            ]
        }
    ],
    "nodes" : [
        {
            "mesh" : 0,
            "name" : "sleeve",
            "scale" : [
                0.7290283441543579,
                0.7290283441543579,
                0.7290283441543579
            ]
        },
        {
            "name" : "Bone.004",
            "rotation" : [
                -1.6033900596124084e-10,
                -5.238353395498052e-08,
                -0.029399415478110313,
                0.9995677471160889
            ],
            "scale" : [
                1,
                1,
                0.9999999403953552
            ],
            "translation" : [
                5.364419166653533e-07,
                0.3890427350997925,
                1.6342482922482304e-13
            ]
        },
        {
            "children" : [
                1
            ],
            "name" : "Bone.003",
            "rotation" : [
                6.607656644064264e-09,
                -1.2167187257716705e-08,
                -0.11161746829748154,
                0.9937513470649719
            ],
            "scale" : [
                1,
                1,
                0.9999999403953552
            ],
            "translation" : [
                4.1723265553628153e-07,
                1.1501877307891846,
                8.881784197001252e-15
            ]
        },
        {
            "children" : [
                2
            ],
            "name" : "Bone.002",
            "rotation" : [
                -1.0473217848527838e-08,
                4.272343545608237e-08,
                0.623467206954956,
                0.7818495035171509
            ],
            "scale" : [
                1,
                1,
                0.9999999403953552
            ],
            "translation" : [
                3.725275421473384e-09,
                0.729494571685791,
                1.4477308241112041e-13
            ]
        },
        {
            "name" : "Bone.020",
            "rotation" : [
                1.0664672478455373e-09,
                1.2673967653142881e-08,
                0.004962544422596693,
                0.9999877214431763
            ],
            "scale" : [
                1,
                0.9999999403953552,
                0.9999999403953552
            ],
            "translation" : [
                4.47033272621411e-08,
                0.3665635287761688,
                8.526512829121202e-14
            ]
        },
        {
            "children" : [
                4
            ],
            "name" : "Bone.019",
            "rotation" : [
                -9.03947849906217e-09,
                -2.2408999100775873e-08,
                -0.04406528174877167,
                0.9990286827087402
            ],
            "scale" : [
                0.9999999403953552,
                0.9999999403953552,
                1
            ],
            "translation" : [
                5.960454529940762e-08,
                0.4771499037742615,
                2.842170943040401e-14
            ]
        },
        {
            "children" : [
                5
            ],
            "name" : "Bone.018",
            "rotation" : [
                -3.4773009360833385e-08,
                3.155616923322668e-08,
                -0.1619725227355957,
                0.9867953658103943
            ],
            "scale" : [
                1,
                1,
                0.9999999403953552
            ],
            "translation" : [
                2.9802313861182483e-07,
                1.2135186195373535,
                -7.105427357601002e-15
            ]
        },
        {
            "children" : [
                6
            ],
            "name" : "Bone.005",
            "rotation" : [
                3.3400944232653274e-08,
                -1.014898032281053e-07,
                0.23479732871055603,
                0.9720443487167358
            ],
            "scale" : [
                1,
                1.0000001192092896,
                0.9999999403953552
            ],
            "translation" : [
                3.725275421473384e-09,
                0.729494571685791,
                1.4477308241112041e-13
            ]
        },
        {
            "name" : "Bone.017",
            "rotation" : [
                7.81597077098746e-14,
                -8.81239525796218e-16,
                -9.764496554274068e-18,
                1
            ],
            "scale" : [
                0.9999999403953552,
                0.9999999403953552,
                0.9999999403953552
            ],
            "translation" : [
                1.862645371275562e-09,
                0.38228940963745117,
                1.444590974619686e-14
            ]
        },
        {
            "children" : [
                8
            ],
            "name" : "Bone.016",
            "rotation" : [
                3.2111907577458965e-10,
                7.761403075789985e-09,
                0.039904382079839706,
                0.9992035627365112
            ],
            "scale" : [
                0.9999999403953552,
                0.9999999403953552,
                1
            ],
            "translation" : [
                3.3527587817161475e-08,
                0.6537113189697266,
                -8.049116928532385e-14
            ]
        },
        {
            "children" : [
                9
            ],
            "name" : "Bone.015",
            "rotation" : [
                1.2252868719642152e-09,
                -3.763331690720406e-08,
                -0.056009117513895035,
                0.9984303712844849
            ],
            "scale" : [
                1,
                1,
                0.9999999403953552
            ],
            "translation" : [
                -7.4505379643596825e-09,
                1.0779215097427368,
                3.064215547965432e-14
            ]
        },
        {
            "children" : [
                10
            ],
            "name" : "Bone.006",
            "rotation" : [
                1.2033995328009084e-11,
                4.870717162930305e-08,
                -0.0011111001949757338,
                0.9999994039535522
            ],
            "scale" : [
                1,
                1,
                0.9999999403953552
            ],
            "translation" : [
                3.725275421473384e-09,
                0.729494571685791,
                1.4477308241112041e-13
            ]
        },
        {
            "name" : "Bone.014",
            "rotation" : [
                -2.071424365368557e-09,
                1.4040939078086012e-08,
                -0.017362771555781364,
                0.9998493194580078
            ],
            "scale" : [
                0.9999999403953552,
                0.9999999403953552,
                0.9999999403953552
            ],
            "translation" : [
                -1.192094174484737e-07,
                0.27816444635391235,
                2.842170943040401e-14
            ]
        },
        {
            "children" : [
                12
            ],
            "name" : "Bone.013",
            "rotation" : [
                6.129316609815305e-09,
                -3.739031129157411e-08,
                0.06393249332904816,
                0.997954249382019
            ],
            "scale" : [
                0.9999999403953552,
                0.9999999403953552,
                0.9999999403953552
            ],
            "translation" : [
                -5.960473714594627e-08,
                0.42109623551368713,
                -6.217248937900877e-14
            ]
        },
        {
            "children" : [
                13
            ],
            "name" : "Bone.012",
            "rotation" : [
                7.97755972392622e-10,
                9.916372611940005e-09,
                0.011676445603370667,
                0.9999318718910217
            ],
            "scale" : [
                0.9999999403953552,
                0.9999999403953552,
                0.9999999403953552
            ],
            "translation" : [
                -8.940706663906894e-08,
                1.1054768562316895,
                8.704148513061227e-14
            ]
        },
        {
            "children" : [
                14
            ],
            "name" : "Bone.007",
            "rotation" : [
                -1.261908888494645e-08,
                -1.9712720344955414e-08,
                -0.21741412580013275,
                0.9760794639587402
            ],
            "scale" : [
                1,
                1,
                0.9999999403953552
            ],
            "translation" : [
                3.725275421473384e-09,
                0.729494571685791,
                1.4477308241112041e-13
            ]
        },
        {
            "name" : "Bone.011",
            "rotation" : [
                -7.65837526728319e-09,
                -5.005429670745798e-08,
                -0.0238224845379591,
                0.9997162222862244
            ],
            "scale" : [
                0.9999999403953552,
                0.9999998807907104,
                0.9999999403953552
            ],
            "translation" : [
                4.7683693082944956e-07,
                0.1832810640335083,
                -8.526512829121202e-14
            ]
        },
        {
            "children" : [
                16
            ],
            "name" : "Bone.010",
            "rotation" : [
                1.5757173343899922e-09,
                -3.5745550519550306e-08,
                0.006685943342745304,
                0.9999776482582092
            ],
            "scale" : [
                1.0000001192092896,
                0.9999999403953552,
                0.9999999403953552
            ],
            "translation" : [
                -1.7881411906728317e-07,
                0.27721327543258667,
                1.9895196601282805e-13
            ]
        },
        {
            "children" : [
                17
            ],
            "name" : "Bone.009",
            "rotation" : [
                2.9223429010016844e-08,
                -5.065456676334179e-08,
                0.19713014364242554,
                0.9803774356842041
            ],
            "scale" : [
                1,
                1,
                0.9999999403953552
            ],
            "translation" : [
                -3.8743036157029564e-07,
                1.1039735078811646,
                6.750155989720952e-14
            ]
        },
        {
            "children" : [
                18
            ],
            "name" : "Bone.008",
            "rotation" : [
                -3.2023418583548846e-08,
                -2.5817769255809253e-08,
                -0.47646093368530273,
                0.8791956305503845
            ],
            "scale" : [
                1.0000001192092896,
                1,
                0.9999999403953552
            ],
            "translation" : [
                3.725275421473384e-09,
                0.729494571685791,
                1.4477308241112041e-13
            ]
        },
        {
            "children" : [
                3,
                7,
                11,
                15,
                19
            ],
            "name" : "Bone.001",
            "rotation" : [
                -1.5889696669546538e-08,
                4.022730237807082e-08,
                0.014579176902770996,
                0.9998937249183655
            ],
            "scale" : [
                1,
                0.9999999403953552,
                0.9999999403953552
            ],
            "translation" : [
                1.862599074975435e-09,
                3.945629358291626,
                -3.9745984281580604e-14
            ]
        },
        {
            "children" : [
                20
            ],
            "name" : "Bone",
            "rotation" : [
                -6.970257260263679e-08,
                -5.8612162234794596e-08,
                0.0026548493187874556,
                0.9999964833259583
            ],
            "scale" : [
                0.9999999403953552,
                0.9999999403953552,
                0.9999999403953552
            ]
        },
        {
            "mesh" : 1,
            "name" : "Cube",
            "skin" : 0
        },
        {
            "children" : [
                22,
                21
            ],
            "name" : "Armature",
            "scale" : [
                0.7290283441543579,
                0.7290283441543579,
                0.7290283441543579
            ]
        }
    ],
    "materials" : [
        {
            "doubleSided" : true,
            "name" : "Sleeve",
            "pbrMetallicRoughness" : {
                "baseColorFactor" : [
                    0.1585414707660675,
                    0.06862308830022812,
                    0.8000000715255737,
                    1
                ],
                "metallicFactor" : 0,
                "roughnessFactor" : 0.5
            }
        },
        {
            "doubleSided" : true,
            "name" : "Skin",
            "pbrMetallicRoughness" : {
                "baseColorFactor" : [
                    0.8000000715255737,
                    0.2686731219291687,
                    0.256636381149292,
                    1
                ],
                "metallicFactor" : 0,
                "roughnessFactor" : 0.5
            }
        }
    ],
    "meshes" : [
        {
            "name" : "Cube.003",
            "primitives" : [
                {
                    "attributes" : {
                        "POSITION" : 0,
                        "NORMAL" : 1
                    },
                    "indices" : 2,
                    "material" : 0
                }
            ]
        },
        {
            "name" : "Cube",
            "primitives" : [
                {
                    "attributes" : {
                        "POSITION" : 3,
                        "NORMAL" : 4,
                        "JOINTS_0" : 5,
                        "WEIGHTS_0" : 6
                    },
                    "indices" : 7,
                    "material" : 1
                }
            ]
        }
    ],
    "skins" : [
        {
            "inverseBindMatrices" : 8,
            "joints" : [
                21,
                20,
                3,
                2,
                1,
                7,
                6,
                5,
                4,
                11,
                10,
                9,
                8,
                15,
                14,
                13,
                12,
                19,
                18,
                17,
                16
            ],
            "name" : "Armature"
        }
    ],
    "accessors" : [
        {
            "bufferView" : 0,
            "componentType" : 5126,
            "count" : 120,
            "max" : [
                0.7350339889526367,
                4.024220943450928,
                0.685016393661499
            ],
            "min" : [
                -0.8096614480018616,
                0.10555112361907959,
                -0.685016393661499
            ],
            "type" : "VEC3"
        },
        {
            "bufferView" : 1,
            "componentType" : 5126,
            "count" : 120,
            "type" : "VEC3"
        },
        {
            "bufferView" : 2,
            "componentType" : 5123,
            "count" : 300,
            "type" : "SCALAR"
        },
        {
            "bufferView" : 3,
            "componentType" : 5126,
            "count" : 398,
            "max" : [
                1.120793342590332,
                5.385485649108887,
                0.49939635396003723
            ],
            "min" : [
                -1.603026032447815,
                0.07694976031780243,
                -0.49939635396003723
            ],
            "type" : "VEC3"
        },
        {
            "bufferView" : 4,
            "componentType" : 5126,
            "count" : 398,
            "type" : "VEC3"
        },
        {
            "bufferView" : 5,
            "componentType" : 5121,
            "count" : 398,
            "type" : "VEC4"
        },
        {
            "bufferView" : 6,
            "componentType" : 5126,
            "count" : 398,
            "type" : "VEC4"
        },
        {
            "bufferView" : 7,
            "componentType" : 5123,
            "count" : 2376,
            "type" : "SCALAR"
        },
        {
            "bufferView" : 8,
            "componentType" : 5126,
            "count" : 21,
            "type" : "MAT4"
        }
    ],
    "bufferViews" : [
        {
            "buffer" : 0,
            "byteLength" : 1440,
            "byteOffset" : 0,
            "target" : 34962
        },
        {
            "buffer" : 0,
            "byteLength" : 1440,
            "byteOffset" : 1440,
            "target" : 34962
        },
        {
            "buffer" : 0,
            "byteLength" : 600,
            "byteOffset" : 2880,
            "target" : 34963
        },
        {
            "buffer" : 0,
            "byteLength" : 4776,
            "byteOffset" : 3480,
            "target" : 34962
        },
        {
            "buffer" : 0,
            "byteLength" : 4776,
            "byteOffset" : 8256,
            "target" : 34962
        },
        {
            "buffer" : 0,
            "byteLength" : 1592,
            "byteOffset" : 13032,
            "target" : 34962
        },
        {
            "buffer" : 0,
            "byteLength" : 6368,
            "byteOffset" : 14624,
            "target" : 34962
        },
        {
            "buffer" : 0,
            "byteLength" : 4752,
            "byteOffset" : 20992,
            "target" : 34963
        },
        {
            "buffer" : 0,
            "byteLength" : 1344,
            "byteOffset" : 25744
        }
    ],
    "buffers" : [
        {
            "byteLength" : 27088,
            "uri" : "hand_asl2.bin"
        }
    ]
}
