{
    "asset" : {
        "generator" : "Khronos glTF Blender I/O v3.4.50",
        "version" : "2.0"
    },
    "scene" : 0,
    "scenes" : [
        {
            "name" : "Scene",
            "nodes" : [
                0
            ]
        }
    ],
    "nodes" : [
        {
            "mesh" : 0,
            "name" : "sleeve",
            "rotation" : [
                0,
                -0.9999454021453857,
                0,
                0.010451766662299633
            ],
            "scale" : [
                0.7159626483917236,
                0.7159626483917236,
                0.7159626483917236
            ],
            "translation" : [
                0.02840050496160984,
                -0.1925019770860672,
                0.015347696840763092
            ]
        }
    ],
    "animations" : [
        {
            "channels" : [
                {
                    "sampler" : 0,
                    "target" : {
                        "node" : 0,
                        "path" : "translation"
                    }
                },
                {
                    "sampler" : 1,
                    "target" : {
                        "node" : 0,
                        "path" : "rotation"
                    }
                },
                {
                    "sampler" : 2,
                    "target" : {
                        "node" : 0,
                        "path" : "scale"
                    }
                }
            ],
            "name" : "sleeve",
            "samplers" : [
                {
                    "input" : 6,
                    "interpolation" : "LINEAR",
                    "output" : 7
                },
                {
                    "input" : 6,
                    "interpolation" : "LINEAR",
                    "output" : 8
                },
                {
                    "input" : 6,
                    "interpolation" : "LINEAR",
                    "output" : 9
                }
            ]
        }
    ],
    "materials" : [
        {
            "doubleSided" : true,
            "name" : "Sleeve",
            "pbrMetallicRoughness" : {
                "baseColorFactor" : [
                    0.1585414707660675,
                    0.06862308830022812,
                    0.8000000715255737,
                    1
                ],
                "metallicFactor" : 0,
                "roughnessFactor" : 0.5
            }
        },
        {
            "doubleSided" : true,
            "name" : "Skin",
            "pbrMetallicRoughness" : {
                "baseColorFactor" : [
                    0.8000000715255737,
                    0.2686731219291687,
                    0.256636381149292,
                    1
                ],
                "metallicFactor" : 0,
                "roughnessFactor" : 0.5
            }
        }
    ],
    "meshes" : [
        {
            "name" : "Cube.003",
            "primitives" : [
                {
                    "attributes" : {
                        "POSITION" : 0,
                        "NORMAL" : 1
                    },
                    "indices" : 2,
                    "material" : 0
                },
                {
                    "attributes" : {
                        "POSITION" : 3,
                        "NORMAL" : 4
                    },
                    "indices" : 5,
                    "material" : 1
                }
            ]
        }
    ],
    "accessors" : [
        {
            "bufferView" : 0,
            "componentType" : 5126,
            "count" : 494,
            "max" : [
                0.8028713464736938,
                4.041316986083984,
                0.757742166519165
            ],
            "min" : [
                -0.8791462182998657,
                0.02769908308982849,
                -0.757742166519165
            ],
            "type" : "VEC3"
        },
        {
            "bufferView" : 1,
            "componentType" : 5126,
            "count" : 494,
            "type" : "VEC3"
        },
        {
            "bufferView" : 2,
            "componentType" : 5123,
            "count" : 2568,
            "type" : "SCALAR"
        },
        {
            "bufferView" : 3,
            "componentType" : 5126,
            "count" : 6649,
            "max" : [
                1.3621737957000732,
                6.660788536071777,
                0.6551405787467957
            ],
            "min" : [
                -1.8169289827346802,
                0.4382200241088867,
                -1.291150689125061
            ],
            "type" : "VEC3"
        },
        {
            "bufferView" : 4,
            "componentType" : 5126,
            "count" : 6649,
            "type" : "VEC3"
        },
        {
            "bufferView" : 5,
            "componentType" : 5123,
            "count" : 38016,
            "type" : "SCALAR"
        },
        {
            "bufferView" : 6,
            "componentType" : 5126,
            "count" : 2,
            "max" : [
                0.041666666666666664
            ],
            "min" : [
                0
            ],
            "type" : "SCALAR"
        },
        {
            "bufferView" : 7,
            "componentType" : 5126,
            "count" : 2,
            "type" : "VEC3"
        },
        {
            "bufferView" : 8,
            "componentType" : 5126,
            "count" : 2,
            "type" : "VEC4"
        },
        {
            "bufferView" : 9,
            "componentType" : 5126,
            "count" : 2,
            "type" : "VEC3"
        }
    ],
    "bufferViews" : [
        {
            "buffer" : 0,
            "byteLength" : 5928,
            "byteOffset" : 0,
            "target" : 34962
        },
        {
            "buffer" : 0,
            "byteLength" : 5928,
            "byteOffset" : 5928,
            "target" : 34962
        },
        {
            "buffer" : 0,
            "byteLength" : 5136,
            "byteOffset" : 11856,
            "target" : 34963
        },
        {
            "buffer" : 0,
            "byteLength" : 79788,
            "byteOffset" : 16992,
            "target" : 34962
        },
        {
            "buffer" : 0,
            "byteLength" : 79788,
            "byteOffset" : 96780,
            "target" : 34962
        },
        {
            "buffer" : 0,
            "byteLength" : 76032,
            "byteOffset" : 176568,
            "target" : 34963
        },
        {
            "buffer" : 0,
            "byteLength" : 8,
            "byteOffset" : 252600
        },
        {
            "buffer" : 0,
            "byteLength" : 24,
            "byteOffset" : 252608
        },
        {
            "buffer" : 0,
            "byteLength" : 32,
            "byteOffset" : 252632
        },
        {
            "buffer" : 0,
            "byteLength" : 24,
            "byteOffset" : 252664
        }
    ],
    "buffers" : [
        {
            "byteLength" : 252688,
            "uri" : "hand_asl.bin"
        }
    ]
}
