<svg id="visual" viewBox="0 0 900 600" width="900" height="600" xmlns="http://www.w3.org/2000/svg" xmlns:xlink="http://www.w3.org/1999/xlink" version="1.1"><rect x="0" y="0" width="900" height="600" fill="#ff6f61"></rect><defs><linearGradient id="grad1_0" x1="33.3%" y1="100%" x2="100%" y2="0%"><stop offset="20%" stop-color="#ffffff" stop-opacity="1"></stop><stop offset="80%" stop-color="#ffffff" stop-opacity="1"></stop></linearGradient></defs><defs><linearGradient id="grad1_1" x1="33.3%" y1="100%" x2="100%" y2="0%"><stop offset="20%" stop-color="#ffffff" stop-opacity="1"></stop><stop offset="80%" stop-color="#ffd1c8" stop-opacity="1"></stop></linearGradient></defs><defs><linearGradient id="grad1_2" x1="33.3%" y1="100%" x2="100%" y2="0%"><stop offset="20%" stop-color="#ffa193" stop-opacity="1"></stop><stop offset="80%" stop-color="#ffd1c8" stop-opacity="1"></stop></linearGradient></defs><defs><linearGradient id="grad1_3" x1="33.3%" y1="100%" x2="100%" y2="0%"><stop offset="20%" stop-color="#ffa193" stop-opacity="1"></stop><stop offset="80%" stop-color="#ff6f61" stop-opacity="1"></stop></linearGradient></defs><defs><linearGradient id="grad2_0" x1="0%" y1="100%" x2="66.7%" y2="0%"><stop offset="20%" stop-color="#ffffff" stop-opacity="1"></stop><stop offset="80%" stop-color="#ffffff" stop-opacity="1"></stop></linearGradient></defs><defs><linearGradient id="grad2_1" x1="0%" y1="100%" x2="66.7%" y2="0%"><stop offset="20%" stop-color="#ffd1c8" stop-opacity="1"></stop><stop offset="80%" stop-color="#ffffff" stop-opacity="1"></stop></linearGradient></defs><defs><linearGradient id="grad2_2" x1="0%" y1="100%" x2="66.7%" y2="0%"><stop offset="20%" stop-color="#ffd1c8" stop-opacity="1"></stop><stop offset="80%" stop-color="#ffa193" stop-opacity="1"></stop></linearGradient></defs><defs><linearGradient id="grad2_3" x1="0%" y1="100%" x2="66.7%" y2="0%"><stop offset="20%" stop-color="#ff6f61" stop-opacity="1"></stop><stop offset="80%" stop-color="#ffa193" stop-opacity="1"></stop></linearGradient></defs><g transform="translate(900, 600)"><path d="M-459.7 0C-427.9 -28.3 -396.1 -56.7 -389 -88.8C-381.9 -120.9 -399.4 -156.8 -400 -192.6C-400.6 -228.5 -384.3 -264.2 -355 -283.1C-325.6 -301.9 -283.4 -303.8 -254.4 -319C-225.4 -334.2 -209.7 -362.7 -187 -388.3C-164.3 -414 -134.6 -436.8 -102.3 -448.2C-70 -459.6 -35 -459.7 0 -459.7L0 0Z" fill="#ff897a"></path><path d="M-344.8 0C-320.9 -21.2 -297.1 -42.5 -291.7 -66.6C-286.4 -90.7 -299.6 -117.6 -300 -144.5C-300.5 -171.4 -288.2 -198.2 -266.2 -212.3C-244.2 -226.4 -212.5 -227.8 -190.8 -239.2C-169 -250.6 -157.3 -272 -140.3 -291.2C-123.2 -310.5 -101 -327.6 -76.7 -336.1C-52.5 -344.7 -26.2 -344.7 0 -344.8L0 0Z" fill="#ffb9ad"></path><path d="M-229.9 0C-214 -14.2 -198.1 -28.3 -194.5 -44.4C-190.9 -60.5 -199.7 -78.4 -200 -96.3C-200.3 -114.2 -192.1 -132.1 -177.5 -141.5C-162.8 -150.9 -141.7 -151.9 -127.2 -159.5C-112.7 -167.1 -104.8 -181.3 -93.5 -194.2C-82.2 -207 -67.3 -218.4 -51.1 -224.1C-35 -229.8 -17.5 -229.8 0 -229.9L0 0Z" fill="#ffe8e3"></path><path d="M-114.9 0C-107 -7.1 -99 -14.2 -97.2 -22.2C-95.5 -30.2 -99.9 -39.2 -100 -48.2C-100.2 -57.1 -96.1 -66.1 -88.7 -70.8C-81.4 -75.5 -70.8 -75.9 -63.6 -79.7C-56.3 -83.5 -52.4 -90.7 -46.8 -97.1C-41.1 -103.5 -33.7 -109.2 -25.6 -112C-17.5 -114.9 -8.7 -114.9 0 -114.9L0 0Z" fill="#ffffff"></path></g><g transform="translate(0, 0)"><path d="M459.7 0C454.5 33.1 449.2 66.2 444.6 101.5C439.9 136.7 435.9 174.2 414.2 199.5C392.4 224.8 352.9 238 330.7 263.7C308.5 289.5 303.7 327.9 284.3 356.5C265 385.2 231.1 404.2 196.1 407.2C161.1 410.3 125 397.5 92.1 403.6C59.2 409.7 29.6 434.7 0 459.7L0 0Z" fill="#ff897a"></path><path d="M344.8 0C340.8 24.8 336.9 49.7 333.4 76.1C330 102.5 327 130.6 310.6 149.6C294.3 168.6 264.7 178.5 248 197.8C231.4 217.1 227.7 245.9 213.2 267.4C198.7 288.9 173.3 303.1 147.1 305.4C120.8 307.7 93.7 298.1 69.1 302.7C44.4 307.3 22.2 326 0 344.8L0 0Z" fill="#ffb9ad"></path><path d="M229.9 0C227.2 16.6 224.6 33.1 222.3 50.7C220 68.4 218 87.1 207.1 99.7C196.2 112.4 176.5 119 165.4 131.9C154.3 144.8 151.8 163.9 142.2 178.3C132.5 192.6 115.6 202.1 98.1 203.6C80.6 205.2 62.5 198.8 46.1 201.8C29.6 204.9 14.8 217.4 0 229.9L0 0Z" fill="#ffe8e3"></path><path d="M114.9 0C113.6 8.3 112.3 16.6 111.1 25.4C110 34.2 109 43.5 103.5 49.9C98.1 56.2 88.2 59.5 82.7 65.9C77.1 72.4 75.9 82 71.1 89.1C66.2 96.3 57.8 101 49 101.8C40.3 102.6 31.2 99.4 23 100.9C14.8 102.4 7.4 108.7 0 114.9L0 0Z" fill="#ffffff"></path></g></svg>