<svg id="visual" viewBox="0 0 960 540" width="960" height="540" xmlns="http://www.w3.org/2000/svg" xmlns:xlink="http://www.w3.org/1999/xlink" version="1.1"><rect x="0" y="0" width="960" height="540" fill="#ffffff"></rect><path d="M0 319L22.8 320.8C45.7 322.7 91.3 326.3 137 329.2C182.7 332 228.3 334 274 333.5C319.7 333 365.3 330 411.2 334.7C457 339.3 503 351.7 548.8 357C594.7 362.3 640.3 360.7 686 359.3C731.7 358 777.3 357 823 358C868.7 359 914.3 362 937.2 363.5L960 365L960 541L937.2 541C914.3 541 868.7 541 823 541C777.3 541 731.7 541 686 541C640.3 541 594.7 541 548.8 541C503 541 457 541 411.2 541C365.3 541 319.7 541 274 541C228.3 541 182.7 541 137 541C91.3 541 45.7 541 22.8 541L0 541Z" fill="#f7e5e9"></path><path d="M0 412L22.8 411C45.7 410 91.3 408 137 404C182.7 400 228.3 394 274 393.5C319.7 393 365.3 398 411.2 397.2C457 396.3 503 389.7 548.8 388.8C594.7 388 640.3 393 686 390.7C731.7 388.3 777.3 378.7 823 374.7C868.7 370.7 914.3 372.3 937.2 373.2L960 374L960 541L937.2 541C914.3 541 868.7 541 823 541C777.3 541 731.7 541 686 541C640.3 541 594.7 541 548.8 541C503 541 457 541 411.2 541C365.3 541 319.7 541 274 541C228.3 541 182.7 541 137 541C91.3 541 45.7 541 22.8 541L0 541Z" fill="#fccdd5"></path><path d="M0 442L22.8 435C45.7 428 91.3 414 137 411.7C182.7 409.3 228.3 418.7 274 418.7C319.7 418.7 365.3 409.3 411.2 410.5C457 411.7 503 423.3 548.8 427.5C594.7 431.7 640.3 428.3 686 430C731.7 431.7 777.3 438.3 823 438C868.7 437.7 914.3 430.3 937.2 426.7L960 423L960 541L937.2 541C914.3 541 868.7 541 823 541C777.3 541 731.7 541 686 541C640.3 541 594.7 541 548.8 541C503 541 457 541 411.2 541C365.3 541 319.7 541 274 541C228.3 541 182.7 541 137 541C91.3 541 45.7 541 22.8 541L0 541Z" fill="#ffb4bf"></path><path d="M0 448L22.8 448.8C45.7 449.7 91.3 451.3 137 452.7C182.7 454 228.3 455 274 456.2C319.7 457.3 365.3 458.7 411.2 459.8C457 461 503 462 548.8 459.2C594.7 456.3 640.3 449.7 686 450C731.7 450.3 777.3 457.7 823 461.5C868.7 465.3 914.3 465.7 937.2 465.8L960 466L960 541L937.2 541C914.3 541 868.7 541 823 541C777.3 541 731.7 541 686 541C640.3 541 594.7 541 548.8 541C503 541 457 541 411.2 541C365.3 541 319.7 541 274 541C228.3 541 182.7 541 137 541C91.3 541 45.7 541 22.8 541L0 541Z" fill="#ff9aa6"></path><path d="M0 477L22.8 478C45.7 479 91.3 481 137 481.7C182.7 482.3 228.3 481.7 274 484.7C319.7 487.7 365.3 494.3 411.2 497.7C457 501 503 501 548.8 502.7C594.7 504.3 640.3 507.7 686 507C731.7 506.3 777.3 501.7 823 501.2C868.7 500.7 914.3 504.3 937.2 506.2L960 508L960 541L937.2 541C914.3 541 868.7 541 823 541C777.3 541 731.7 541 686 541C640.3 541 594.7 541 548.8 541C503 541 457 541 411.2 541C365.3 541 319.7 541 274 541C228.3 541 182.7 541 137 541C91.3 541 45.7 541 22.8 541L0 541Z" fill="#ff808b"></path></svg>